<?xml version="1.0" standalone="no"?><!DOCTYPE svg PUBLIC "-//W3C//DTD SVG 1.1//EN" "http://www.w3.org/Graphics/SVG/1.1/DTD/svg11.dtd"><svg t="1588063549090" class="icon" viewBox="0 0 1024 1024" version="1.1" xmlns="http://www.w3.org/2000/svg" p-id="1172" xmlns:xlink="http://www.w3.org/1999/xlink" width="200" height="200"><defs><style type="text/css"></style></defs><path d="M794.92 358.55H229.29c-55.83 0-101.25-44.8-101.25-99.86v-30.73c0-55.06 45.42-99.86 101.25-99.86h565.63c55.83 0 101.26 44.8 101.26 99.86v30.73c-0.01 55.07-45.43 99.86-101.26 99.86zM229.29 204.93c-13.47 0-24.44 10.34-24.44 23.04v30.73c0 12.71 10.96 23.04 24.44 23.04h565.64c13.47 0 24.44-10.34 24.44-23.04v-30.73c0-12.71-10.97-23.04-24.44-23.04H229.29zM794.92 627.4H229.29c-55.83 0-101.25-44.8-101.25-99.86v-30.73c0-55.06 45.42-99.86 101.25-99.86h565.63c55.83 0 101.26 44.8 101.26 99.86v30.73c-0.01 55.06-45.43 99.86-101.26 99.86zM229.29 473.77c-13.47 0-24.44 10.34-24.44 23.04v30.73c0 12.71 10.96 23.04 24.44 23.04h565.64c13.47 0 24.44-10.34 24.44-23.04v-30.73c0-12.71-10.97-23.04-24.44-23.04H229.29zM794.92 896.25H229.29c-55.83 0-101.25-44.8-101.25-99.86v-30.73c0-55.06 45.42-99.86 101.25-99.86h565.63c55.83 0 101.26 44.8 101.26 99.86v30.73c-0.01 55.06-45.43 99.86-101.26 99.86zM229.29 742.62c-13.47 0-24.44 10.34-24.44 23.04v30.73c0 12.71 10.96 23.04 24.44 23.04h565.64c13.47 0 24.44-10.34 24.44-23.04v-30.73c0-12.71-10.97-23.04-24.44-23.04H229.29z" fill="#707070" p-id="1173"></path></svg>