<?xml version="1.0" standalone="no"?><!DOCTYPE svg PUBLIC "-//W3C//DTD SVG 1.1//EN" "http://www.w3.org/Graphics/SVG/1.1/DTD/svg11.dtd"><svg t="1588063554764" class="icon" viewBox="0 0 1024 1024" version="1.1" xmlns="http://www.w3.org/2000/svg" p-id="1309" xmlns:xlink="http://www.w3.org/1999/xlink" width="200" height="200"><defs><style type="text/css"></style></defs><path d="M844.56 205H694.63c-45.55 0-82.61 37.06-82.61 82.61v449.77c0 45.55 37.06 82.61 82.61 82.61h149.93c45.55 0 82.61-37.06 82.61-82.61V287.61c0-45.55-37.05-82.61-82.61-82.61z m9.18 532.39c0 5.06-4.11 9.18-9.18 9.18H694.63c-5.06 0-9.18-4.11-9.18-9.18V287.61c0-5.06 4.11-9.18 9.18-9.18h149.93c5.06 0 9.18 4.11 9.18 9.18v449.78zM330.54 214.18H180.62c-45.55 0-82.61 37.06-82.61 82.61v449.77c0 45.55 37.06 82.61 82.61 82.61h149.92c45.55 0 82.62-37.06 82.62-82.61V296.79c-0.01-45.55-37.07-82.61-82.62-82.61z m9.17 532.38c0 5.06-4.12 9.18-9.18 9.18H180.62c-5.06 0-9.18-4.11-9.18-9.18V296.79c0-5.06 4.12-9.18 9.18-9.18h149.92c5.06 0 9.18 4.11 9.18 9.18v449.77zM512.59 402.35c-20.28 0-36.72 16.44-36.72 36.72v159.1c0 20.28 16.44 36.72 36.72 36.72 20.28 0 36.72-16.44 36.72-36.72v-159.1c-0.01-20.28-16.45-36.72-36.72-36.72zM512.59 119.34c-20.28 0-36.72 16.44-36.72 36.72v159.1c0 20.28 16.44 36.72 36.72 36.72 20.28 0 36.72-16.44 36.72-36.72v-159.1c-0.01-20.28-16.45-36.72-36.72-36.72zM512.59 673.13c-20.28 0-36.72 16.44-36.72 36.72v159.1c0 20.28 16.44 36.72 36.72 36.72 20.28 0 36.72-16.44 36.72-36.72v-159.1c-0.01-20.28-16.45-36.72-36.72-36.72z" fill="#707070" p-id="1310"></path></svg>