<?xml version="1.0" standalone="no"?><!DOCTYPE svg PUBLIC "-//W3C//DTD SVG 1.1//EN" "http://www.w3.org/Graphics/SVG/1.1/DTD/svg11.dtd"><svg t="1586395178742" class="icon" viewBox="0 0 1024 1024" version="1.1" xmlns="http://www.w3.org/2000/svg" p-id="1121" xmlns:xlink="http://www.w3.org/1999/xlink" width="200" height="200"><defs><style type="text/css"></style></defs><path d="M142.05914112 636.5184l137.38287331 65.94863445 254.03695445 123.0377711 244.98327666-118.69297778 146.50936889-70.17206443a72.81777778 72.81777778 0 0 1-34.07872 96.67773554l-325.66537443 157.72330667a72.81777778 72.81777778 0 0 1-63.49710222 0L176.06504334 733.31749888A72.81777778 72.81777778 0 0 1 142.05914112 636.5184z m782.59692999-152.38333667a72.81777778 72.81777778 0 0 1-33.76317668 97.33309667L565.20324778 739.19146667a72.81777778 72.81777778 0 0 1-63.49710222 0L176.06504334 581.46816A72.81777778 72.81777778 0 0 1 140.60278556 487.97013333l360.69072555 170.1266011 32.18545777 15.58300445 325.66537444-157.72330667-0.16990777-0.07281778 65.68163556-31.72427776zM565.22752 140.84778667l325.64110222 157.69903445a72.81777778 72.81777778 0 0 1 0 131.072l-325.64110222 157.72330667a72.81777778 72.81777778 0 0 1-63.49710222 0L176.06504334 429.61882112a72.81777778 72.81777778 0 0 1 0-131.072L501.73041778 140.87205888a72.81777778 72.81777778 0 0 1 63.49710222 0z m-31.74855112 65.536l-325.66537443 157.69903445 325.66537443 157.72330667 325.66537444-157.72330667-325.66537444-157.69903445z" p-id="1122"></path></svg>