<?xml version="1.0" standalone="no"?><!DOCTYPE svg PUBLIC "-//W3C//DTD SVG 1.1//EN" "http://www.w3.org/Graphics/SVG/1.1/DTD/svg11.dtd"><svg t="1584155520612" class="icon" viewBox="0 0 1024 1024" version="1.1" xmlns="http://www.w3.org/2000/svg" p-id="4406" xmlns:xlink="http://www.w3.org/1999/xlink" width="200" height="200"><defs><style type="text/css"></style></defs><path d="M480 640h64v-256h-64z" fill="#181818" p-id="4407"></path><path d="M512 800a48 48 0 1 0 0-96 48 48 0 0 0 0 96" fill="#181818" p-id="4408"></path><path d="M512 195.2L874.272 864H149.728L512 195.2z m443.744 685.76l0.384-0.192-416-768-0.384 0.224A31.584 31.584 0 0 0 512 96a31.584 31.584 0 0 0-27.744 16.96l-0.384-0.192-416 768 0.384 0.224A31.2 31.2 0 0 0 64 896a32 32 0 0 0 32 32h832a32 32 0 0 0 32-32 31.2 31.2 0 0 0-4.256-15.04z" fill="#181818" p-id="4409"></path></svg>