<?xml version="1.0" standalone="no"?><!DOCTYPE svg PUBLIC "-//W3C//DTD SVG 1.1//EN" "http://www.w3.org/Graphics/SVG/1.1/DTD/svg11.dtd"><svg t="1586395141646" class="icon" viewBox="0 0 1024 1024" version="1.1" xmlns="http://www.w3.org/2000/svg" p-id="988" xmlns:xlink="http://www.w3.org/1999/xlink" width="200" height="200"><defs><style type="text/css"></style></defs><path d="M797.39259221 172.18370333v72.81777777h24.24832H239.12296333v533.9970378h582.54222223V511.97572779L894.48296333 512v-72.86632334V778.9985189a72.81777778 72.81777778 0 0 1-72.81777777 72.81777777H239.12296333a72.81777778 72.81777778 0 0 1-72.81777777-72.81777777V245.0014811a72.81777778 72.81777778 0 0 1 72.81777777-72.81777777h558.26962888z m119.63960888 47.33155555l51.99189334 50.97244445-359.11300665 366.46760334-178.45210112-183.59789 52.23461888-50.7539911 126.43593557 130.10109553L917.03220109 219.51525888z m-46.84610332-28.78729443c1.01944889 0.89808555 1.99035221 1.82044445 2.93698332 2.76707555l-2.9127111 2.93698333v-5.70405888z" p-id="989"></path></svg>