<?xml version="1.0" standalone="no"?><!DOCTYPE svg PUBLIC "-//W3C//DTD SVG 1.1//EN" "http://www.w3.org/Graphics/SVG/1.1/DTD/svg11.dtd"><svg t="1584165505706" class="icon" viewBox="0 0 1024 1024" version="1.1" xmlns="http://www.w3.org/2000/svg" p-id="955" xmlns:xlink="http://www.w3.org/1999/xlink" width="200" height="200"><defs><style type="text/css"></style></defs><path d="M512 97.74775349c243.16606934 0 440.14301275 196.97694341 440.14301275 440.14301153s-196.97694341 440.14301275-440.14301275 440.14301276S71.85698725 781.05683437 71.85698725 537.89076502 268.83393066 97.74775349 512 97.74775349z m0 77.67229629c-174.63321244 0-320.29465956 123.31771616-354.75526755 287.64640355h42.15016532c10.43397806 0.15534459 20.09123438 1.03563022 36.58365155 3.18456415l36.94612268 4.9451366c9.45012978 1.16508445 16.51830875 1.81235317 22.57674786 1.99358814l5.77364029 0.07767229c4.50499318-0.05178194 7.87079229-0.41425184 9.96794429-0.90617598l-0.33657955 0.02589036 1.86413511-1.73468088c35.49623941-31.19837275 100.32671645-29.77437984 145.68733749-4.89335467l5.12637156 2.97743763c16.88077866 10.30452505 26.69337956 22.44729363 43.26346903 48.00147911l5.22993422 8.05202845c12.29811317 18.64135111 17.34681244 23.50881541 18.874368 23.5088142 62.62976117 0 123.44716917 44.29909925 123.44716917 103.07113719 0 29.10122075-19.23683911 46.03378134-45.02404028 52.97250607-7.30119585 1.96769777-13.79977838 3.10689185-23.068672 3.98717869l-10.35630697 0.82850368-26.40858075 1.68290016-7.50832116 0.69905066-5.98076682 0.77672297c-2.61496771 77.594624-28.47984238 139.91369599-92.68894105 139.91369599-14.91308089 0-25.89076502-1.47577363-42.84921599-4.91924503l-12.86771082-2.43373155c-12.86771083-1.99358934-21.77413332-0.98384949-38.05942518 4.97102697l-7.94846459 2.71853037c-2.097152 0.67316031-4.22019436 1.29453868-6.34323794 1.91591583A360.83959823 360.83959823 0 0 0 512 900.36148148c200.29096178 0 362.47071645-162.17975467 362.47071645-362.47071646 0-23.35347083-2.20071466-46.16323436-6.42091023-68.2998388-4.22019436 1.76057245-8.54395259 3.13278222-12.94538312 4.14252207-1.24275675 4.55677511-2.66674844 10.64110459-4.40142932 18.82258727l-4.34964859 20.58315852-3.72827021 16.181728c-14.44704711 57.8917511-34.77129838 88.64998044-83.08346668 88.64998043-58.20244029 0-83.39415586-40.07890489-86.21624889-96.44310043a249.69054223 249.69054223 0 0 1-0.28479882-10.5634323l0.10356386-11.39193719 0.49192414-13.69621451c-4.78979201-2.66674844-15.43089661-8.49217066-23.30168889-12.97127347l-6.60214518-3.88361483c-42.46085571-26.27912651-67.00530134-61.82714785-67.00530135-116.0941926 0-56.90790283 30.13685097-104.8576 87.07064415-144.28923616A361.07261511 361.07261511 0 0 0 512 175.42004978z m-88.83121661 359.62273186c-19.52163673-11.90975169-52.71359883-12.68647466-58.95327288-6.2137837-21.35988148 22.18838638-43.39292327 25.78720237-90.43644326 20.68672117l-13.46319761-1.60522786-38.00764447-5.10047998a261.49673127 261.49673127 0 0 0-20.03945244-1.94180741l-6.03254754-0.12945423-46.68105008-0.02589036 0.05178073 5.28171614a361.04672355 361.04672355 0 0 0 89.58204921 230.63493807c30.96535586 9.63136475 58.43545717 9.55369245 83.67895347 0.28479883 31.94920414-11.70262638 55.04376771-12.99716384 83.60128117-7.61188504l14.39526639 2.84798339c9.26889362 1.76057245 15.09431584 2.40784118 22.52496593 2.40784118 3.31401838 0 15.19787971-33.08839822 15.1978785-75.73048889 0-29.41190994 18.33066192-49.19245392 44.71335231-58.25422222 13.90334103-4.76390044 27.47010253-6.49858253 50.87535407-7.89668265l3.88361481-0.25890846c-7.74133927-3.78005216-17.21735941-6.47269095-27.1076314-6.47269095-39.04327468 0-57.86586075-18.40833422-86.63050074-62.86277806l-7.27530548-11.08124802c-7.09406932-10.51165036-11.18481067-15.27555201-13.87745069-16.93256059z m333.65429453 4.97102697c0.05178194 0.36247111 0.25890725 0.44014341 0.54370608 0.4401422l0.98384949-0.20712532-1.03563143-0.10356387-0.49192414-0.12945301z m-18.90025836-285.67870578l-1.11330372 0.59548679c-56.7007763 30.21452325-82.41030637 63.12168653-82.41030637 97.99654756 0 24.10430222 8.72518755 36.73899615 30.21452326 50.02095882l1.29453868 0.77672297 30.52521244 17.19146784c21.90358755 13.38552532 35.21144059 28.47984238 35.21144059 53.56799408l-0.05178073 3.02921956-0.85439526 27.1853037v6.80927171l0.18123496 6.16200177c0.80261332 16.25940029 1.86413511 20.97152 5.43706074 22.21427674l0.46603377 0.12945424 0.05178194-0.25890847a4.40143053 4.40143053 0 0 1 0.25890725-0.69905067l0.51781572-1.03563022 1.39810133-2.66674842c3.62470756-7.61188503 7.06817897-19.02971259 10.74466725-35.67747558l6.2137837-29.25656414c3.3657991-15.30144237 6.13611141-25.165824 10.04561658-34.51239112 9.32067555-22.08482251 24.49266369-37.69695406 50.07274076-37.69695407 1.68290016 0 4.16841364-0.93206755 8.1555911-3.90950517a42.71976297 42.71976297 0 0 0 0.46603378-0.36247112 363.09209483 363.09209483 0 0 0-106.85118934-139.6030068z m-426.42090666 218.00024412l-0.25890846 0.02589158-0.33657955 0.02589036-1.52755557 1.501664 1.63111823-1.29453748 0.49192535-0.25890846z" p-id="956"></path></svg>