<?xml version="1.0" standalone="no"?><!DOCTYPE svg PUBLIC "-//W3C//DTD SVG 1.1//EN" "http://www.w3.org/Graphics/SVG/1.1/DTD/svg11.dtd"><svg t="1586394909156" class="icon" viewBox="0 0 1024 1024" version="1.1" xmlns="http://www.w3.org/2000/svg" p-id="988" xmlns:xlink="http://www.w3.org/1999/xlink" width="200" height="200"><defs><style type="text/css"></style></defs><path d="M611.57708333 109.52500001a28.125 28.125 0 0 0-7.0875 55.8 334.321875 334.321875 0 0 1 154.40625 61.48125c-101.728125 23.146875-132.665625 93.20625-139.1625 153.815625-9.421875 87.609375 52.93125 133.565625 94.190625 163.96875 14.484375 10.6875 36.365625 26.83125 37.378125 34.36875 0.140625 1.096875-0.871875 4.753125-5.765625 10.9125-53.6625 67.640625-73.659375 123.778125-59.371875 166.95 4.359375 13.10625 13.44375 28.9125 31.89375 42.046875A335.615625 335.615625 0 0 1 561.45833333 837.62500001c-2.64375 0-5.23125-0.309375-7.875-0.365625 35.240625-59.23125 22.6125-103.978125 3.009375-132.80625-47.53125-69.8625-118.575-91.51875-185.484375-56.41875-4.640625 2.503125-8.4375 1.490625-30.234375-19.0125-21.4875-20.25-55.575-51.80625-105.496875-42.46875-4.415625-16.875-7.903125-34.171875-9.703125-52.03125a28.2375 28.2375 0 0 0-30.825-25.171875c-15.440625 1.575-26.71875 15.35625-25.171875 30.825A392.428125 392.428125 0 0 0 561.45833333 893.87500001c217.125 0 393.75-176.625 393.75-393.75 0-197.775-147.7125-365.68125-343.63125-390.6zM254.78333333 641.03125001c16.14375 0.61875 29.109375 11.615625 47.53125 28.940625 21.09375 19.884375 53.04375 49.809375 94.921875 27.871875 55.659375-29.25 94.584375 11.41875 112.8375 38.221875 7.14375 10.490625 25.396875 37.434375-19.715625 93.825a335.615625 335.615625 0 0 1-235.575-188.859375z m517.978125 121.865625c-18.45-5.2875-29.728125-13.246875-33.24375-23.79375-7.509375-22.640625 11.19375-65.3625 50.034375-114.24375 13.95-17.578125 19.828125-35.521875 17.465625-53.325-4.1625-31.21875-31.1625-51.13125-59.765625-72.196875-38.1375-28.125-77.596875-57.178125-71.634375-112.66875 4.865625-45.05625 24.8625-104.00625 137.728125-110.840625A336.825 336.825 0 0 1 898.95833333 500.12500001c0 106.14375-49.359375 200.86875-126.196875 262.771875z" p-id="989"></path><path d="M317.53020833 549.06250001a28.125 28.125 0 0 0 37.85625 0C484.59270833 431.58437501 547.39583333 337.36562501 547.39583333 261.06250001 547.39583333 144.73750001 452.78333333 50.12500001 336.45833333 50.12500001S125.52083333 144.73750001 125.52083333 261.06250001c0 76.303125 62.803125 170.521875 192.009375 288zM336.45833333 106.37500001c85.303125 0 154.6875 69.384375 154.6875 154.6875 0 38.559375-27.45 109.096875-154.6875 228.88125C209.22083333 370.15937501 181.77083333 299.62187501 181.77083333 261.06250001 181.77083333 175.75937501 251.15520833 106.37500001 336.45833333 106.37500001z" p-id="990"></path><path d="M336.45833333 261.06250001m-70.3125 0a70.3125 70.3125 0 1 0 140.625 0 70.3125 70.3125 0 1 0-140.625 0Z" p-id="991"></path></svg>