<?xml version="1.0" standalone="no"?><!DOCTYPE svg PUBLIC "-//W3C//DTD SVG 1.1//EN" "http://www.w3.org/Graphics/SVG/1.1/DTD/svg11.dtd"><svg t="1584165288500" class="icon" viewBox="0 0 1024 1024" version="1.1" xmlns="http://www.w3.org/2000/svg" p-id="1753" xmlns:xlink="http://www.w3.org/1999/xlink" width="200" height="200"><defs><style type="text/css"></style></defs><path d="M859.43788999 172.18370333a72.81777778 72.81777778 0 0 1 72.81777778 72.81777777v533.9970378a72.81777778 72.81777778 0 0 1-72.81777778 72.81777777h-679.63259221a72.81777778 72.81777778 0 0 1-72.81777778-72.81777777V245.0014811a72.81777778 72.81777778 0 0 1 72.81777778-72.81777777h679.63259221z m0 72.81777777h-679.63259221v533.9970378h679.63259221V245.0014811zM778.9985189 351.7037989v72.76923221c-114.46954667-1.65053667-185.80669667 34.4670811-220.15241557 107.2120411l-2.62144 5.82542222-3.25252666 7.23323336c-50.0743589 108.25576334-146.87345778 162.09237333-283.67379 160.24765554v-72.81777778c109.49366557 1.82044445 179.69000334-36.84579555 217.23970332-117.23662222l2.8884389-6.40796445 2.98552889-6.65068999c47.40437333-102.01770667 145.05301333-151.70370333 286.58650112-150.17452999z m-452.48967111-19.61225557a48.54518557 48.54518557 0 1 1 0 97.09037112 48.54518557 48.54518557 0 0 1 0-97.09037112z" p-id="1754"></path></svg>