<?xml version="1.0" standalone="no"?><!DOCTYPE svg PUBLIC "-//W3C//DTD SVG 1.1//EN" "http://www.w3.org/Graphics/SVG/1.1/DTD/svg11.dtd"><svg t="1586394912406" class="icon" viewBox="0 0 1024 1024" version="1.1" xmlns="http://www.w3.org/2000/svg" p-id="1123" xmlns:xlink="http://www.w3.org/1999/xlink" width="200" height="200"><defs><style type="text/css"></style></defs><path d="M859.0563552 213.42222187a68.26666667 68.26666667 0 0 1 68.26666666 68.26666666v500.62222294a68.26666667 68.26666667 0 0 1-68.26666666 68.26666666h-637.1555552a68.26666667 68.26666667 0 0 1-68.26666667-68.26666666V281.68888853a68.26666667 68.26666667 0 0 1 68.26666667-68.26666666h637.1555552z m0 68.26666666h-637.1555552v500.62222294h637.1555552V281.68888853zM783.6444448 381.72231147v68.22115519c-107.3152-1.54737813-174.19377813 32.31288853-206.3928896 100.51128853l-2.4576 5.46133334-3.04924374 6.78115627c-46.94471147 101.48977813-137.69386667 151.9616-265.94417813 150.23217707v-68.26666667c102.65031147 1.70666667 168.45937813-34.54293333 203.66222187-109.90933333l2.70791146-6.00746667 2.79893334-6.23502187c44.4416-95.6416 135.9872-142.22222187 268.6748448-140.78862186z m-424.20906667-18.3864896a45.51111147 45.51111147 0 1 1 0 91.02222292 45.51111147 45.51111147 0 0 1 0-91.02222292z" p-id="1124"></path></svg>