<?xml version="1.0" standalone="no"?><!DOCTYPE svg PUBLIC "-//W3C//DTD SVG 1.1//EN" "http://www.w3.org/Graphics/SVG/1.1/DTD/svg11.dtd"><svg t="1586395175203" class="icon" viewBox="0 0 1024 1024" version="1.1" xmlns="http://www.w3.org/2000/svg" p-id="988" xmlns:xlink="http://www.w3.org/1999/xlink" width="200" height="200"><defs><style type="text/css"></style></defs><path d="M484.78814776 102.18154667v73.44886556c-164.68954112 23.54441443-291.27111111 165.17499221-291.2711111 336.36958777 0 187.67568555 152.14060999 339.81629667 339.81629667 339.81629667 171.19459555 0 312.82517333-126.58156999 336.36958777-291.2711111h73.44886556c-24.02986667 205.00631666-198.35562667 364.08888889-409.81845333 364.08888888-227.89537223 0-412.63407445-184.73870222-412.63407445-412.63407445 0-211.46282667 159.08257223-385.78858667 364.08888888-409.81845333zM533.33333333 99.36592555c225.24965888 0 408.38636999 180.51527111 412.56125667 404.79402666L945.96740778 512H533.33333333V99.36592555z m72.81777778 80.63355335V439.18222222h259.18274332a340.30174777 340.30174777 0 0 0-251.31842332-257.36229888L606.15111111 179.9994789z" p-id="989"></path></svg>